<?xml version="1.0" encoding="iso-8859-1"?>
<!-- Generator: Adobe Illustrator 19.0.0, SVG Export Plug-In . SVG Version: 6.00 Build 0)  -->
<svg version="1.1" id="Layer_1" xmlns="http://www.w3.org/2000/svg" xmlns:xlink="http://www.w3.org/1999/xlink" x="0px" y="0px"
	 viewBox="0 0 512 512" style="enable-background:new 0 0 512 512;" xml:space="preserve">
<path style="fill:#FFDB2D;" d="M256,512C114.511,512,0,397.503,0,256C0,114.511,114.497,0,256,0c141.49,0,256,114.497,256,256
	C512,397.49,397.503,512,256,512z"/>
<path style="fill:#FF9900;" d="M256,0v512c141.49,0,256-114.497,256-256C512,114.511,397.503,0,256,0z"/>
<path style="fill:#FF4F19;" d="M376.036,157.014c-24.154,0-43.804,19.651-43.804,43.804c0,8.195,2.268,15.869,6.2,22.435
	l-32.586,45.164c-6.621-1.462-13.281-1.363-19.707,0.185l-32.833-45.507c17.229-29.041-3.808-66.082-37.695-66.082
	c-24.154,0-43.804,19.651-43.804,43.804c0,8.424,2.396,16.298,6.534,22.983l-32.295,44.76
	c-27.662-6.541-53.885,14.586-53.885,42.621c0,24.154,19.651,43.804,43.804,43.804s43.804-19.651,43.804-43.804
	c0-8.195-2.268-15.869-6.2-22.435l32.586-45.164c6.621,1.462,13.28,1.363,19.707-0.185l32.833,45.507
	c-17.229,29.041,3.808,66.082,37.695,66.082c24.154,0,43.804-19.651,43.804-43.804c0-8.424-2.396-16.298-6.534-22.983l32.295-44.76
	c27.661,6.541,53.884-14.586,53.884-42.621C419.84,176.665,400.189,157.014,376.036,157.014z M215.609,191.148
	c5.333,0,9.671,4.338,9.671,9.671c0,5.333-4.338,9.671-9.671,9.671c-5.333,0-9.671-4.338-9.671-9.671
	C205.938,195.486,210.276,191.148,215.609,191.148z M135.964,320.854c-5.333,0-9.671-4.338-9.671-9.671
	c0-5.333,4.338-9.671,9.671-9.671s9.671,4.338,9.671,9.671C145.636,316.516,141.297,320.854,135.964,320.854z M296.391,320.854
	c-5.333,0-9.671-4.338-9.671-9.671c0-5.333,4.338-9.671,9.671-9.671c5.333,0,9.671,4.338,9.671,9.671
	C306.062,316.516,301.724,320.854,296.391,320.854z M376.036,210.49c-5.21,0-9.671-4.267-9.671-9.671
	c0-5.333,4.338-9.671,9.671-9.671c5.333,0,9.671,4.338,9.671,9.671C385.707,206.152,381.368,210.49,376.036,210.49z"/>
<g>
	<path style="fill:#FC0023;" d="M256,183.872v33.858C260.61,206.777,260.496,194.547,256,183.872z"/>
	<path style="fill:#FC0023;" d="M376.036,157.014c-24.154,0-43.804,19.651-43.804,43.804c0,8.195,2.268,15.869,6.2,22.435
		l-32.586,45.164c-6.621-1.462-13.281-1.363-19.707,0.185L256,226.833v58.335l2.697,3.736c-1.018,1.716-1.915,3.511-2.697,5.367
		v33.858c6.639,15.763,22.242,26.857,40.391,26.857c24.154,0,43.804-19.651,43.804-43.804c0-8.424-2.396-16.298-6.534-22.983
		l32.295-44.76c27.661,6.541,53.884-14.586,53.884-42.621C419.84,176.665,400.189,157.014,376.036,157.014z M296.391,320.854
		c-5.333,0-9.671-4.338-9.671-9.671c0-5.333,4.338-9.671,9.671-9.671c5.333,0,9.671,4.338,9.671,9.671
		C306.062,316.516,301.724,320.854,296.391,320.854z M376.036,210.49c-5.21,0-9.671-4.267-9.671-9.671
		c0-5.333,4.338-9.671,9.671-9.671c5.333,0,9.671,4.338,9.671,9.671C385.707,206.152,381.368,210.49,376.036,210.49z"/>
</g>
<g>
</g>
<g>
</g>
<g>
</g>
<g>
</g>
<g>
</g>
<g>
</g>
<g>
</g>
<g>
</g>
<g>
</g>
<g>
</g>
<g>
</g>
<g>
</g>
<g>
</g>
<g>
</g>
<g>
</g>
</svg>
